<svg xmlns="http://www.w3.org/2000/svg" width="960" height="960" viewBox="0 0 960 960">
  <path d="M337.4 116.1v158.1h-41.1v-66.4h-12.3v66.4h-41.1V116.1h41.1v56.5h12.3V116.1H337.4z"/>
  <path d="M395.1 116.1v147.5h-41.1V116.1H395.1z"/>
  <path d="M505.9 174.3h-41.1v-14.4c0-9-0.4-14.7-1.2-17 -0.8-2.3-2.6-3.4-5.6-3.4 -2.5 0-4.3 1-5.2 2.9 -0.9 2-1.4 7-1.4 15v75.9c0 7.1 0.5 11.8 1.4 14 0.9 2.2 2.7 3.4 5.5 3.4 3 0 5-1.3 6.1-3.8s1.6-7.5 1.6-14.8v-18.7h-8.3v-24H505.9v84.9h-25.8l-3.8-11.3c-2.8 4.9-6.3 8.5-10.6 11 -4.3 2.4-9.3 3.7-15.1 3.7 -6.9 0-13.4-1.7-19.4-5 -6-3.4-10.6-7.5-13.7-12.5 -3.1-4.9-5.1-10.1-5.9-15.6 -0.8-5.4-1.2-13.6-1.2-24.5v-47c0-15.1 0.8-26.1 2.4-32.9 1.6-6.8 6.3-13.1 14-18.8 7.7-5.7 17.7-8.5 29.9-8.5 12 0 22 2.5 30 7.4 7.9 4.9 13.1 10.8 15.5 17.6 2.4 6.8 3.6 16.7 3.6 29.6V174.3z"/>
  <path d="M616.4 116.1v158.1h-41.1v-66.4h-12.3v66.4h-41.1V116.1h41.1v56.5h12.3V116.1H616.4z"/>
  <path d="M282.4 287.7v59.2h24v14.8h-63.4v-74H282.4z"/>
  <path d="M616.4 287.7l-18.8 74H544.9c-4.8-11.4-9.1-24.3-12.8-38.8 -1.7 6.2-5.6 19.1-11.8 38.8h-52.4L449 287.7h41l4.5 25.8 4.3 25c1.6-12.9 5.4-29.8 11.7-50.8h43.8c0.6 2.2 2.1 10.3 4.6 24.4l4.7 28.1c2.4-17.9 6.3-35.4 11.8-52.6H616.4z"/>
  <path d="M339.7 375.7V493h-27.4l0-79.2L301.4 493H281.9l-11.5-77.4L270.3 493h-27.4V375.7h40.6c1.2 7.1 2.4 15.4 3.7 24.9l4.5 29.8 7.2-54.8H339.7z"/>
  <path d="M351.3 384.3h52.3v21.7h-20.9v20.6h19.6v20.7h-19.6v23.9h23V493h-54.4V384.3z"/>
  <path d="M415.8 375.7h23.5c15.2 0 25.4 0.7 30.8 2 5.3 1.4 9.4 3.6 12.2 6.7 2.8 3.1 4.5 6.5 5.2 10.3 0.7 3.8 1 11.2 1 22.4v41.1c0 10.5-0.5 17.6-1.5 21.1 -1 3.6-2.8 6.3-5.3 8.3 -2.5 2-5.7 3.4-9.4 4.2 -3.7 0.8-9.3 1.2-16.8 1.2h-39.6V375.7zM447.2 395.7v77.2c4.5 0 7.3-0.9 8.3-2.6 1-1.8 1.6-6.6 1.6-14.4v-45.6c0-5.3-0.2-8.7-0.5-10.2 -0.3-1.5-1.1-2.6-2.4-3.3C452.9 396.1 450.6 395.7 447.2 395.7z"/>
  <path d="M531.6 375.7V493H500.2V375.7H531.6z"/>
  <path d="M598.4 375.7L616.4 493h-32.1l-1.7-21.1h-11.2L569.5 493h-32.4l16-117.3H598.4zM581.8 451.1c-1.6-13.3-3.2-29.7-4.8-49.3 -3.2 22.5-5.2 38.9-6 49.3H581.8z"/>
  <path d="M320.9 323.4c0-8 2.4-15.8 7.1-23.4 4.7-7.5 11.4-13.3 20.1-17.2 8.7-4 18.4-5.9 29.1-5.9 16.5 0 30.1 4.5 40.7 13.5 10.6 9 15.9 20.4 15.9 34.1 0 13.9-5.3 25.3-16 34.4 -10.7 9.1-24.1 13.7-40.3 13.7 -10 0-19.6-1.9-28.7-5.7 -9.1-3.8-16-9.4-20.8-16.7C323.3 342.9 320.9 333.9 320.9 323.4zM350.6 324.7c0 9.1 2.6 16 7.7 20.9 5.1 4.8 11.5 7.2 19.1 7.2 7.6 0 13.9-2.4 19-7.2 5.1-4.8 7.7-11.8 7.7-21 0-9-2.6-15.9-7.7-20.7 -5.1-4.8-11.4-7.2-19-7.2 -7.6 0-13.9 2.4-19.1 7.2C353.2 308.7 350.6 315.6 350.6 324.7z"/>
  <path d="M329.6 323.7c0-6.3 2-12.4 6-18.3 4-5.9 9.7-10.4 17.1-13.5 7.4-3.1 15.6-4.7 24.7-4.7 14.1 0 25.6 3.5 34.6 10.6 9 7.1 13.5 16 13.5 26.7 0 10.9-4.5 19.9-13.6 27 -9.1 7.1-20.5 10.7-34.3 10.7 -8.5 0-16.7-1.5-24.4-4.5 -7.7-3-13.6-7.3-17.6-13.1C331.6 338.9 329.6 331.9 329.6 323.7zM354.8 324.7c0 7.1 2.2 12.6 6.6 16.4 4.4 3.8 9.8 5.7 16.2 5.7s11.8-1.9 16.2-5.7c4.3-3.8 6.5-9.3 6.5-16.5 0-7-2.2-12.4-6.5-16.2 -4.3-3.8-9.7-5.7-16.2-5.7s-11.8 1.9-16.2 5.7C357 312.1 354.8 317.5 354.8 324.7z"/>
</svg>
